<?xml version="1.0" encoding="utf-8"?>
<!-- Generator: Adobe Illustrator 19.2.1, SVG Export Plug-In . SVG Version: 6.00 Build 0)  -->
<!DOCTYPE svg PUBLIC "-//W3C//DTD SVG 1.1 Tiny//EN" "http://www.w3.org/Graphics/SVG/1.1/DTD/svg11-tiny.dtd">
<svg version="1.1" baseProfile="tiny" id="ps_x5F_cc_x5F_app_x5F_RGB.svg"
	 xmlns="http://www.w3.org/2000/svg" xmlns:xlink="http://www.w3.org/1999/xlink" x="0px" y="0px" viewBox="0 0 240 234"
	 xml:space="preserve">
<g>
	<rect x="10" y="10" fill-rule="evenodd" fill="#2E001E" width="220" height="214"/>
</g>
<g>
	<path fill-rule="evenodd" fill="#FF2BC2" d="M0,0v234h240V0H0z M10,10h220v214H10V10z"/>
</g>
<path fill="#FF2BC2" d="M174.3,98.3c-1.5-0.7-3.4-1-5.8-1c-12.6,0-21,9.7-21,25.8c0,18.4,8.6,25.8,19.8,25.8c2.4,0,5-0.3,6.9-1.1
	V98.3z M129.5,123.9c0-23.3,15-41.5,39.6-41.5c2.1,0,3.2,0,5.2,0.2v-26c0-0.6,0.5-1,1-1h16.1c0.8,0,1,0.3,1,0.8v91.4
	c0,2.7,0,6.1,0.5,9.8c0,0.7,0,0.8-0.6,1.1c-8.4,4-17.2,5.8-25.6,5.8C145,164.5,129.5,151.1,129.5,123.9z M95.4,107.7l28,54.3
	c0.5,0.8,0.2,1.6-0.6,1.6h-17.4c-1.1,0-1.6-0.3-2.1-1.3c-6.4-13.2-12.9-26.9-19.6-41.1h-0.2c-6,13.4-12.6,28-19,41.2
	c-0.5,0.8-1,1.1-1.8,1.1H46.1c-1,0-1.1-0.8-0.6-1.4l27.4-52.7L46.4,57c-0.6-0.8,0-1.5,0.7-1.5h17.2c1,0,1.5,0.2,1.8,1.1
	C72.4,69.9,78.8,83,84.8,96.4h0.2c5.8-13.2,12.2-26.5,18.3-39.6c0.5-0.8,0.8-1.3,1.8-1.3h16.1c0.8,0,1.1,0.6,0.6,1.5L95.4,107.7z"/>
</svg>
